<svg width="16" height="16" viewBox="0 0 16 16" fill="none" xmlns="http://www.w3.org/2000/svg">
<g clip-path="url(#clip0_1_789)">
<path d="M1 2.5988C1.885 2.2288 3.154 1.8298 4.388 1.7058C5.718 1.5718 6.846 1.7688 7.5 2.4578V12.2038C6.565 11.6738 5.38 11.6008 4.287 11.7108C3.107 11.8308 1.917 12.1718 1 12.5218V2.5988ZM8.5 2.4578C9.154 1.7688 10.282 1.5718 11.612 1.7058C12.846 1.8298 14.115 2.2288 15 2.5988V12.5218C14.082 12.1718 12.893 11.8298 11.713 11.7118C10.619 11.6008 9.435 11.6728 8.5 12.2038V2.4578ZM8 1.5538C7.015 0.706801 5.587 0.580801 4.287 0.710801C2.773 0.863801 1.245 1.3828 0.293 1.8158C0.205649 1.85553 0.131575 1.91955 0.079621 2.00023C0.0276667 2.08091 2.65714e-05 2.17484 0 2.2708L0 13.2708C2.3162e-05 13.3545 0.0210371 13.4368 0.0611171 13.5102C0.101197 13.5836 0.159062 13.6458 0.229411 13.6911C0.29976 13.7364 0.380345 13.7633 0.463783 13.7693C0.547222 13.7754 0.630848 13.7604 0.707 13.7258C1.589 13.3258 3.01 12.8448 4.387 12.7058C5.796 12.5638 6.977 12.7928 7.61 13.5828C7.65685 13.6412 7.71622 13.6883 7.78372 13.7207C7.85122 13.7531 7.92513 13.7699 8 13.7699C8.07487 13.7699 8.14878 13.7531 8.21628 13.7207C8.28378 13.6883 8.34315 13.6412 8.39 13.5828C9.023 12.7928 10.204 12.5638 11.612 12.7058C12.99 12.8448 14.412 13.3258 15.293 13.7258C15.3692 13.7604 15.4528 13.7754 15.5362 13.7693C15.6197 13.7633 15.7002 13.7364 15.7706 13.6911C15.8409 13.6458 15.8988 13.5836 15.9389 13.5102C15.979 13.4368 16 13.3545 16 13.2708V2.2708C16 2.17484 15.9723 2.08091 15.9204 2.00023C15.8684 1.91955 15.7944 1.85553 15.707 1.8158C14.755 1.3828 13.227 0.863801 11.713 0.710801C10.413 0.579801 8.985 0.706801 8 1.5538Z" fill="#313131"/>
</g>
<defs>
<clipPath id="clip0_1_789">
<rect width="16" height="16" fill="white"/>
</clipPath>
</defs>
</svg>
