<svg width="39" height="28" viewBox="0 0 39 28" fill="none" xmlns="http://www.w3.org/2000/svg">
<path d="M16.8233 1.93284C14.2825 0.694699 11.4282 0 8.41167 0C5.3951 0 2.54079 0.694699 0 1.93284V25.9662C2.54079 24.728 5.3951 24.0333 8.41167 24.0333C12.4219 24.0333 16.1453 25.2611 19.2267 27.3612C22.308 25.2611 26.0315 24.0333 30.0417 24.0333C33.0582 24.0333 35.9125 24.728 38.4533 25.9662V1.93284C35.9125 0.694699 33.0582 0 30.0417 0C27.0251 0 24.1708 0.694699 21.63 1.93284V19.2267C21.63 20.554 20.554 21.63 19.2267 21.63C17.8993 21.63 16.8233 20.554 16.8233 19.2267V1.93284Z" fill="#382C2C"/>
</svg>
