<svg width="17" height="17" viewBox="0 0 17 17" fill="none" xmlns="http://www.w3.org/2000/svg">
<path fill-rule="evenodd" clip-rule="evenodd" d="M8.01111 16.0222C12.4355 16.0222 16.0222 12.4355 16.0222 8.01111C16.0222 3.5867 12.4355 0 8.01111 0C3.5867 0 0 3.5867 0 8.01111C0 12.4355 3.5867 16.0222 8.01111 16.0222ZM9.0125 4.00556C9.0125 3.4525 8.56416 3.00417 8.01111 3.00417C7.45806 3.00417 7.00972 3.4525 7.00972 4.00556V8.01111C7.00972 8.2767 7.11523 8.5314 7.30302 8.7192L10.1354 11.5516C10.5264 11.9426 11.1605 11.9426 11.5516 11.5516C11.9426 11.1605 11.9426 10.5264 11.5516 10.1354L9.0125 7.59632V4.00556Z" fill="white" fill-opacity="0.8"/>
</svg>
