<svg width="28" height="28" viewBox="0 0 28 28" fill="none" xmlns="http://www.w3.org/2000/svg">
<path d="M23.133 0H4C1.8 0 0 1.80286 0 4.00636V23.1718C0 25.3753 1.8 27.1782 4 27.1782H23.135C25.335 27.1782 27.135 25.3753 27.135 23.1718V4.00636C27.133 1.80286 25.335 0 23.133 0ZM22.876 14.506H19.656V26.1746H14.838V14.506H12.428V10.4837H14.838V8.06982C14.838 4.78861 16.198 2.83651 20.068 2.83651H23.285V6.85789H21.273C19.769 6.85789 19.669 7.42179 19.669 8.47046L19.656 10.4837H23.301L22.875 14.506H22.876Z" fill="white"/>
</svg>
