<svg width="20" height="19" viewBox="0 0 20 19" fill="none" xmlns="http://www.w3.org/2000/svg">
<path d="M6.69126 5.77375L9.42126 0.365C9.47369 0.256192 9.55562 0.164292 9.65772 0.099762C9.75982 0.0352324 9.87798 0.000666602 9.99876 0C10.2275 0 10.4563 0.12125 10.58 0.365L13.31 5.77375L19.4325 6.64375C19.5851 6.66774 19.7248 6.74364 19.8279 6.85863C19.9311 6.97363 19.9914 7.12069 19.9988 7.275C20.0075 7.37773 19.9929 7.48111 19.9561 7.57742C19.9193 7.67374 19.8613 7.7605 19.7863 7.83125L15.3825 12.0263L16.42 17.9387C16.5175 18.4925 15.97 18.9263 15.4875 18.6787L9.99876 15.8588L4.51251 18.6787C4.45513 18.7085 4.39362 18.7296 4.33001 18.7412C3.90251 18.8162 3.49501 18.4237 3.58001 17.9387L4.61751 12.0263L0.215014 7.83125C0.146571 7.7665 0.0921679 7.68837 0.0551827 7.60171C0.0181975 7.51505 -0.000580746 7.42172 1.36838e-05 7.3275C7.86999e-05 7.1943 0.0368404 7.06368 0.106264 6.95C0.155512 6.86759 0.222637 6.79728 0.302686 6.74428C0.382735 6.69127 0.473664 6.65692 0.568764 6.64375L6.69126 5.77375ZM9.99876 14.4088C10.0997 14.4083 10.1992 14.4324 10.2888 14.4788L14.8963 16.8463L14.0288 11.9C14.0083 11.7862 14.016 11.6692 14.0513 11.5591C14.0867 11.4491 14.1484 11.3494 14.2313 11.2688L17.865 7.80625L12.8 7.08625C12.6951 7.07041 12.5957 7.02939 12.5101 6.96669C12.4245 6.90399 12.3555 6.82149 12.3088 6.72625L10 2.15375L9.99876 2.1575V14.4075V14.4088Z" fill="#382C2C"/>
</svg>
