<svg width="33" height="33" viewBox="0 0 33 33" fill="none" xmlns="http://www.w3.org/2000/svg">
<path d="M27.4548 9.52254C27.0819 8.63906 26.5442 7.83846 25.8719 7.16555C25.199 6.49064 24.4057 5.9543 23.535 5.58569C22.6322 5.20195 21.6639 5.00553 20.6863 5.00783C19.3148 5.00783 17.9767 5.39212 16.8138 6.11801C16.5356 6.29165 16.2713 6.48237 16.021 6.69017C15.7706 6.48237 15.5063 6.29165 15.2281 6.11801C14.0653 5.39212 12.7271 5.00783 11.3556 5.00783C10.368 5.00783 9.41105 5.2014 8.50691 5.58569C7.63338 5.95575 6.84609 6.48806 6.17007 7.16555C5.49683 7.8377 4.95903 8.63849 4.58714 9.52254C4.20045 10.442 4.00293 11.4184 4.00293 12.4232C4.00293 13.3711 4.1921 14.3589 4.56767 15.3638C4.88203 16.2035 5.3327 17.0746 5.90857 17.9542C6.82105 19.3461 8.07571 20.7979 9.63361 22.2696C12.2153 24.7091 14.7719 26.3943 14.8804 26.4626L15.5397 26.8953C15.8318 27.0861 16.2074 27.0861 16.4995 26.8953L17.1588 26.4626C17.2673 26.3915 19.8211 24.7091 22.4056 22.2696C23.9635 20.7979 25.2181 19.3461 26.1306 17.9542C26.7065 17.0746 27.1599 16.2035 27.4715 15.3638C27.8471 14.3589 28.0362 13.3711 28.0362 12.4232C28.039 11.4184 27.8415 10.442 27.4548 9.52254ZM16.021 24.6437C16.021 24.6437 6.11722 18.1506 6.11722 12.4232C6.11722 9.52254 8.4624 7.17125 11.3556 7.17125C13.3892 7.17125 15.153 8.33266 16.021 10.0292C16.8889 8.33266 18.6527 7.17125 20.6863 7.17125C23.5795 7.17125 25.9247 9.52254 25.9247 12.4232C25.9247 18.1506 16.021 24.6437 16.021 24.6437Z" fill="#937DC2"/>
</svg>
