<svg width="28" height="29" viewBox="0 0 28 29" fill="none" xmlns="http://www.w3.org/2000/svg">
<g clip-path="url(#clip0_1_626)">
<path d="M14.0019 9.53201C11.5317 9.53201 9.51581 11.5511 9.51581 14.0252C9.51581 16.4993 11.5317 18.5184 14.0019 18.5184C16.4721 18.5184 18.4879 16.4993 18.4879 14.0252C18.4879 11.5511 16.4721 9.53201 14.0019 9.53201ZM27.5019 14.025C27.5019 12.1643 27.6062 10.3737 27.5019 8.51642C27.3975 6.35915 28.0769 3.08279 26.5019 1.50528C24.9235 -0.075595 21.6557 0.608181 19.5019 0.503688C17.6442 0.399195 15.8562 0.503688 14.0019 0.503688C12.1442 0.503688 10.3562 0.399195 8.50186 0.503688C6.34802 0.608181 3.07688 -0.0722877 1.50188 1.50522C-0.0764824 3.0861 0.606214 6.35915 0.501887 8.51642C0.39756 10.3771 0.501862 12.1677 0.501862 14.025C0.501862 15.8823 0.39756 17.7296 0.501887 19.5869C0.606214 21.7442 -0.0731386 24.9676 1.50186 26.5451C3.08023 28.1259 6.34802 27.4422 8.50186 27.5467C10.3596 27.6512 12.1475 27.5467 14.0019 27.5467C15.8596 27.5467 17.6475 27.6512 19.5019 27.5467C21.6557 27.4422 24.9269 28.1226 26.5019 26.5451C28.0802 24.9642 27.3975 22.192 27.5019 20.0347C27.6096 18.1774 27.5019 15.8856 27.5019 14.025ZM14.0019 20.9386C10.1822 20.9386 7.09947 17.851 7.09947 14.0252C7.09947 10.1994 10.1822 7.11181 14.0019 7.11181C17.8216 7.11181 20.9043 10.1994 20.9043 14.0252C20.9043 17.851 17.8216 20.9386 14.0019 20.9386ZM21.187 8.44325C20.2951 8.44325 19.5749 7.72192 19.5749 6.82867C19.5749 5.93542 20.2951 5.21409 21.187 5.21409C22.0788 5.21409 22.799 5.93542 22.799 6.82867C22.7993 7.04078 22.7577 7.25085 22.6768 7.44686C22.5959 7.64287 22.4772 7.82097 22.3274 7.97095C22.1777 8.12093 21.9999 8.23985 21.8042 8.32089C21.6085 8.40194 21.3987 8.44352 21.187 8.44325Z" fill="white"/>
</g>
<defs>
<clipPath id="clip0_1_626">
<rect width="28" height="28.0445" fill="white"/>
</clipPath>
</defs>
</svg>
