<svg width="28" height="36" viewBox="0 0 28 36" fill="none" xmlns="http://www.w3.org/2000/svg">
<path d="M13.7691 0C10.1186 0.00430656 6.61892 1.45636 4.03765 4.03763C1.45637 6.61891 0.00432121 10.1186 1.46489e-05 13.7691C-0.00435753 16.7523 0.970086 19.6545 2.77386 22.0306C2.77386 22.0306 3.14938 22.525 3.21072 22.5963L13.7691 35.0486L24.3325 22.5901C24.3876 22.5237 24.7644 22.0306 24.7644 22.0306L24.7656 22.0268C26.5685 19.6518 27.5425 16.7509 27.5382 13.7691C27.5339 10.1186 26.0819 6.61891 23.5006 4.03763C20.9193 1.45636 17.4196 0.00430656 13.7691 0ZM13.7691 18.776C12.7788 18.776 11.8108 18.4824 10.9874 17.9322C10.164 17.3821 9.52226 16.6001 9.1433 15.6852C8.76433 14.7703 8.66518 13.7635 8.85837 12.7923C9.05157 11.821 9.52843 10.9289 10.2287 10.2287C10.9289 9.52842 11.8211 9.05155 12.7923 8.85836C13.7636 8.66517 14.7703 8.76432 15.6852 9.14328C16.6001 9.52225 17.3821 10.164 17.9322 10.9874C18.4824 11.8108 18.7761 12.7788 18.7761 13.7691C18.7744 15.0965 18.2464 16.3691 17.3077 17.3077C16.3691 18.2463 15.0965 18.7744 13.7691 18.776Z" fill="#937DC2"/>
</svg>
