<svg width="17" height="13" viewBox="0 0 17 13" fill="none" xmlns="http://www.w3.org/2000/svg">
<path d="M0.00300419 1.88662L8.01111 5.89017L16.0192 1.88662C15.9896 1.37635 15.766 0.896732 15.3942 0.545984C15.0224 0.195236 14.5306 -9.37147e-05 14.0194 3.37302e-08H2.00278C1.49165 -9.37147e-05 0.999834 0.195236 0.628049 0.545984C0.256264 0.896732 0.0326494 1.37635 0.00300419 1.88662Z" fill="white" fill-opacity="0.8"/>
<path d="M16.0222 4.12372L8.01111 8.12928L0 4.12372V10.0139C0 10.5451 0.211006 11.0545 0.5866 11.4301C0.962194 11.8057 1.47161 12.0167 2.00278 12.0167H14.0194C14.5506 12.0167 15.06 11.8057 15.4356 11.4301C15.8112 11.0545 16.0222 10.5451 16.0222 10.0139V4.12372Z" fill="white" fill-opacity="0.8"/>
</svg>
