<svg width="20" height="20" viewBox="0 0 20 20" fill="none" xmlns="http://www.w3.org/2000/svg">
<path d="M0 1.20167C0 0.538004 0.538004 0 1.20167 0H3.7887C4.37612 0 4.87745 0.424685 4.97402 1.00411L5.86243 6.33456C5.94915 6.85491 5.68635 7.37099 5.21451 7.60691L3.35416 8.53708C4.69558 11.8704 7.35622 14.5311 10.6896 15.8725L11.6198 14.0122C11.8557 13.5403 12.3718 13.2775 12.8921 13.3642L18.2226 14.2526C18.802 14.3492 19.2267 14.8505 19.2267 15.438V18.025C19.2267 18.6887 18.6887 19.2267 18.025 19.2267H15.6217C6.99406 19.2267 0 12.2326 0 3.605V1.20167Z" fill="#937DC2"/>
</svg>
