<svg width="42" height="40" viewBox="0 0 42 40" fill="none" xmlns="http://www.w3.org/2000/svg">
<path d="M19.8261 0.691918C20.1258 -0.230672 21.4311 -0.230671 21.7308 0.691919L25.9494 13.6755C26.0835 14.0881 26.468 14.3674 26.9018 14.3674H40.5536C41.5236 14.3674 41.927 15.6088 41.1422 16.179L30.0977 24.2032C29.7467 24.4582 29.5998 24.9102 29.7339 25.3228L33.9525 38.3064C34.2523 39.229 33.1963 39.9962 32.4115 39.426L21.3671 31.4017C21.0161 31.1467 20.5408 31.1467 20.1898 31.4017L9.14537 39.426C8.36057 39.9962 7.30462 39.229 7.60439 38.3064L11.823 25.3228C11.9571 24.9102 11.8102 24.4582 11.4592 24.2032L0.414748 16.179C-0.370054 15.6088 0.0332818 14.3674 1.00335 14.3674H14.6551C15.0889 14.3674 15.4734 14.0881 15.6075 13.6755L19.8261 0.691918Z" fill="#382C2C"/>
</svg>
