<svg width="39" height="34" viewBox="0 0 39 34" fill="none" xmlns="http://www.w3.org/2000/svg">
<path d="M14.42 30.0416C14.42 32.0326 12.806 33.6466 10.815 33.6466C8.82401 33.6466 7.20999 32.0326 7.20999 30.0416C7.20999 28.0507 8.82401 26.4366 10.815 26.4366C12.806 26.4366 14.42 28.0507 14.42 30.0416Z" fill="#382C2C"/>
<path d="M31.2433 30.0416C31.2433 32.0326 29.6293 33.6466 27.6383 33.6466C25.6473 33.6466 24.0333 32.0326 24.0333 30.0416C24.0333 28.0507 25.6473 26.4366 27.6383 26.4366C29.6293 26.4366 31.2433 28.0507 31.2433 30.0416Z" fill="#382C2C"/>
<path d="M2.40333 0C1.07601 0 0 1.07601 0 2.40333V26.4366C0 27.764 1.07601 28.84 2.40333 28.84H4.92685C5.48355 26.0975 7.90821 24.0333 10.815 24.0333C13.7218 24.0333 16.1464 26.0975 16.7031 28.84H19.2267C20.554 28.84 21.63 27.764 21.63 26.4366V2.40333C21.63 1.07601 20.554 0 19.2267 0H2.40333Z" fill="#382C2C"/>
<path d="M28.84 7.21C27.5127 7.21 26.4366 8.286 26.4366 9.61333V24.1535C26.8249 24.0747 27.2268 24.0333 27.6383 24.0333C30.5451 24.0333 32.9698 26.0975 33.5265 28.84H36.05C37.3773 28.84 38.4533 27.764 38.4533 26.4366V14.42C38.4533 13.7826 38.2001 13.1713 37.7494 12.7206L32.9427 7.91391C32.492 7.4632 31.8807 7.21 31.2433 7.21H28.84Z" fill="#382C2C"/>
</svg>
