<svg width="29" height="29" viewBox="0 0 29 29" fill="none" xmlns="http://www.w3.org/2000/svg">
<g clip-path="url(#clip0_1_630)">
<path d="M24.0326 0.502441H4.00486C2.34631 0.502441 0.5 2.33247 0.5 3.97096V24.0714C0.5 25.7099 2.34631 27.5036 4.00486 27.5036L24.0326 27.5399C25.6912 27.5399 27.5375 25.7099 27.5375 24.0714V4.0073C27.5375 2.36882 25.6912 0.502441 24.0326 0.502441ZM21.9735 9.98997C21.9861 10.1631 21.9861 10.3424 21.9861 10.5155C21.9861 15.8762 17.8553 22.053 10.3074 22.053C7.97912 22.053 5.81988 21.3852 4.00486 20.2352C4.33657 20.2723 4.65576 20.2846 4.99373 20.2846C6.91515 20.2846 8.6801 19.6416 10.0883 18.5534C8.2858 18.5163 6.7712 17.3477 6.25173 15.7401C6.88386 15.8329 7.45339 15.8329 8.1043 15.6659C6.22669 15.2888 4.81849 13.6565 4.81849 11.6841V11.6346C5.363 11.9376 6.00138 12.1231 6.67106 12.1478C6.10805 11.7779 5.6465 11.276 5.32762 10.6869C5.00873 10.0978 4.84242 9.43994 4.84352 8.77193C4.84352 8.01761 5.0438 7.32511 5.40055 6.72537C7.4221 9.18619 10.4576 10.7938 13.8623 10.9669C13.2802 8.21546 15.3644 5.98341 17.8678 5.98341C19.0507 5.98341 20.1147 6.47186 20.8657 7.26328C21.792 7.09016 22.6808 6.7501 23.4694 6.28637C23.1627 7.22619 22.518 8.01761 21.6669 8.51843C22.493 8.43187 23.2941 8.2031 24.0326 7.88776C23.4756 8.69773 22.7746 9.41496 21.9735 9.98997Z" fill="white"/>
</g>
<defs>
<clipPath id="clip0_1_630">
<rect width="28.0389" height="28.0389" fill="white"/>
</clipPath>
</defs>
</svg>
