<svg width="17" height="17" viewBox="0 0 17 17" fill="none" xmlns="http://www.w3.org/2000/svg">
<path d="M0 1.00139C0 0.448337 0.448337 0 1.00139 0H3.15725C3.64677 0 4.06454 0.353904 4.14502 0.836762L4.88535 5.2788C4.95763 5.71243 4.73863 6.14249 4.34543 6.33909L2.79514 7.11424C3.91299 9.89204 6.13018 12.1092 8.90798 13.2271L9.68313 11.6768C9.87973 11.2836 10.3098 11.0646 10.7434 11.1369L15.1855 11.8772C15.6683 11.9577 16.0222 12.3755 16.0222 12.865V15.0208C16.0222 15.5739 15.5739 16.0222 15.0208 16.0222H13.0181C5.82838 16.0222 0 10.1938 0 3.00417V1.00139Z" fill="white" fill-opacity="0.8"/>
</svg>
