<svg width="20" height="21" viewBox="0 0 20 21" fill="none" xmlns="http://www.w3.org/2000/svg">
<path d="M1.20167 0C0.538005 0 0 0.538005 0 1.20167C0 1.86533 0.538005 2.40333 1.20167 2.40333H2.66677L3.03395 3.87206C3.0378 3.88904 3.04202 3.90589 3.04658 3.92259L4.67752 10.4463L3.60494 11.5189C2.09093 13.0329 3.16321 15.6217 5.30435 15.6217H15.6216C16.2853 15.6217 16.8233 15.0837 16.8233 14.42C16.8233 13.7563 16.2853 13.2183 15.6216 13.2183L5.30436 13.2183L6.50602 12.0167H14.42C14.8752 12.0167 15.2913 11.7595 15.4948 11.3524L19.0998 4.1424C19.2861 3.7699 19.2662 3.32752 19.0472 2.97325C18.8282 2.61898 18.4415 2.40333 18.025 2.40333H5.14407L4.77079 0.91022C4.63705 0.375277 4.15641 0 3.605 0H1.20167Z" fill="white"/>
<path d="M16.8233 18.6258C16.8233 19.6213 16.0163 20.4283 15.0208 20.4283C14.0253 20.4283 13.2183 19.6213 13.2183 18.6258C13.2183 17.6303 14.0253 16.8233 15.0208 16.8233C16.0163 16.8233 16.8233 17.6303 16.8233 18.6258Z" fill="white"/>
<path d="M5.4075 20.4283C6.40299 20.4283 7.21 19.6213 7.21 18.6258C7.21 17.6303 6.40299 16.8233 5.4075 16.8233C4.41201 16.8233 3.605 17.6303 3.605 18.6258C3.605 19.6213 4.41201 20.4283 5.4075 20.4283Z" fill="white"/>
</svg>
